Coordinates
version=1
nRows=29
nColumns=22
inDegrees=yes

Units are S.I. units (second, meters, Newtons, ...)
If the header above contains a line with 'inDegrees', this indicates whether rotational values are in degrees (yes) or radians (no).

endheader
time	pelvis_tilt	pelvis_list	pelvis_rotation	pelvis_tx	pelvis_ty	pelvis_tz	hip_flexion_r	hip_adduction_r	hip_rotation_r	knee_angle_r	ankle_angle_r	subtalar_angle_r	hip_flexion_l	hip_adduction_l	hip_rotation_l	knee_angle_l	ankle_angle_l	subtalar_angle_l	lumbar_extension	lumbar_bending	lumbar_rotation
      2.41000000	     -2.04025665	     -6.04003433	    -48.44646104	     -0.48362327	      1.00804865	     -0.07903035	     -2.28642436	     16.60405689	      4.77659618	    -13.41878410	     10.53460481	     -9.46191362	     20.92859849	    -13.80597621	     -0.88318554	    -47.85872777	      9.19947929	     -1.49529047	    -14.42169953	      7.63681997	      9.90652034
      2.42000000	     -2.10464896	     -5.99325623	    -49.17083466	     -0.47906328	      1.00795629	     -0.07450446	     -2.82856267	     16.48808086	      5.52581134	    -13.28844867	     10.72005073	     -9.41589799	     21.41760120	    -13.54678533	     -0.68177171	    -45.92394278	      9.19813241	     -1.29950963	    -14.57507493	      7.58703965	     10.31194474
      2.43000000	     -2.13229825	     -5.99039737	    -49.83696465	     -0.47435665	      1.00790108	     -0.07000949	     -3.42761882	     16.35956184	      6.23389693	    -13.15522938	     10.90884695	     -9.33364533	     21.81266566	    -13.24077428	     -0.50428727	    -43.93925475	      9.11950610	     -0.80277741	    -14.79067227	      7.55963700	     10.63680372
      2.44000000	     -2.17256799	     -5.95285451	    -50.44950874	     -0.46952546	      1.00772892	     -0.06550966	     -3.97461782	     16.20601860	      6.86166758	    -13.03376260	     11.12867119	     -9.23772308	     22.21974877	    -12.88411280	     -0.37185013	    -41.92112287	      8.91277192	     -0.14895958	    -14.95226884	      7.53150165	     10.89772512
      2.45000000	     -2.20611462	     -5.92292855	    -51.00392663	     -0.46458638	      1.00749326	     -0.06100655	     -4.51995611	     16.04562464	      7.42989389	    -12.92129336	     11.37449221	     -9.11612470	     22.59130658	    -12.49493878	     -0.27960714	    -39.87348261	      8.62576934	      0.62435150	    -15.11781843	      7.51391868	     11.09081206
      2.46000000	     -2.23528871	     -5.90567397	    -51.49687220	     -0.45952986	      1.00719049	     -0.05648973	     -5.07516186	     15.88344403	      7.92360139	    -12.80001323	     11.63672946	     -8.96614461	     22.92749269	    -12.08292878	     -0.23008791	    -37.80620297	      8.26691981	      1.49819757	    -15.28749615	      7.51408127	     11.21779585
      2.47000000	     -2.26156394	     -5.90509652	    -51.92983606	     -0.45437397	      1.00681254	     -0.05195679	     -5.63832037	     15.72724227	      8.35465649	    -12.68042483	     11.91393122	     -8.79629831	     23.22608397	    -11.65697660	     -0.22691101	    -35.72610961	      7.87256712	      2.43383022	    -15.46730194	      7.53311893	     11.27586369
      2.48000000	     -2.28901728	     -5.91796489	    -52.30574380	     -0.44912052	      1.00634745	     -0.04738449	     -6.21168971	     15.57842124	      8.71255353	    -12.55007178	     12.19993566	     -8.61526581	     23.49355520	    -11.22433474	     -0.27596814	    -33.64559379	      7.45092090	      3.40660882	    -15.64885060	      7.56956123	     11.28089633
      2.49000000	     -2.32243087	     -5.94639257	    -52.63254772	     -0.44378422	      1.00579092	     -0.04276705	     -6.79155668	     15.44394142	      9.00246532	    -12.41604178	     12.48409420	     -8.42893732	     23.73131370	    -10.79301187	     -0.36813182	    -31.57751212	      7.02715718	      4.41198209	    -15.83148903	      7.62638650	     11.24313504
      2.50000000	     -2.36101919	     -5.98321811	    -52.92208090	     -0.43838755	      1.00514022	     -0.03808888	     -7.36673190	     15.32052641	      9.23266296	    -12.29372133	     12.77403361	     -8.24843229	     23.93871410	    -10.36345306	     -0.49879013	    -29.52865178	      6.62776970	      5.41837998	    -16.01231995	      7.69407802	     11.16896317
      2.51000000	     -2.40750478	     -6.02483448	    -53.18706793	     -0.43292588	      1.00439078	     -0.03332493	     -7.93983690	     15.20577553	      9.40306942	    -12.17428564	     13.07465872	     -8.07779328	     24.11832732	     -9.93779274	     -0.64074059	    -27.51794960	      6.28468761	      6.41204417	    -16.18196421	      7.77014380	     11.08707856
      2.52000000	     -2.46753921	     -6.07347643	    -53.44116862	     -0.42744391	      1.00354772	     -0.02847186	     -8.49696003	     15.10979260	      9.54270484	    -12.08565235	     13.36724101	     -7.91089409	     24.27034467	     -9.52921673	     -0.76868438	    -25.55841439	      6.00975786	      7.40628847	    -16.34569919	      7.85663659	     10.99058414
      2.53000000	     -2.54768651	     -6.12744734	    -53.69764321	     -0.42195063	      1.00261114	     -0.02351122	     -9.03831372	     15.03543559	      9.68214292	    -12.02133447	     13.64954371	     -7.74412484	     24.40022494	     -9.14797880	     -0.84989787	    -23.67553516	      5.83073152	      8.38035517	    -16.49692009	      7.95828649	     10.88566406
      2.54000000	     -2.63337428	     -6.18418592	    -53.96827845	     -0.41644623	      1.00160564	     -0.01841343	     -9.56708395	     14.96571260	      9.79390102	    -11.99343632	     13.94285315	     -7.58106408	     24.48835103	     -8.78918636	     -0.87118366	    -21.87571895	      5.75022914	      9.26965624	    -16.64047133	      8.05179775	     10.81706620
      2.55000000	     -2.74405560	     -6.25380333	    -54.25719847	     -0.41096480	      1.00052865	     -0.01316512	    -10.09072955	     14.92732015	      9.96664586	    -11.98741111	     14.21576822	     -7.39818656	     24.55185421	     -8.48372138	     -0.80958054	    -20.20103272	      5.77782125	     10.10134387	    -16.77565678	      8.16232747	     10.74266044
      2.56000000	     -2.85137529	     -6.32420179	    -54.57735146	     -0.40549888	      0.99941446	     -0.00775630	    -10.59840826	     14.88351677	     10.15119590	    -12.03989498	     14.49590427	     -7.22048543	     24.57022534	     -8.20969230	     -0.68665719	    -18.66137361	      5.86363819	     10.73489364	    -16.90903664	      8.25188240	     10.69230662
      2.57000000	     -2.98861997	     -6.41414678	    -54.92518094	     -0.40003899	      0.99825342	     -0.00216031	    -11.11543374	     14.87380831	     10.40518447	    -12.09907558	     14.74371503	     -7.01847278	     24.57154728	     -8.00855641	     -0.49665664	    -17.31890959	      6.04053341	     11.23052272	    -17.03161941	      8.36575268	     10.67437931
      2.58000000	     -3.13055984	     -6.51233991	    -55.30249794	     -0.39459205	      0.99707811	      0.00362685	    -11.62846677	     14.87000464	     10.69365637	    -12.20080926	     14.96551589	     -6.79057956	     24.54751136	     -7.85668421	     -0.29403527	    -16.19296538	      6.26208165	     11.57276188	    -17.14963298	      8.46741839	     10.68205497
      2.59000000	     -3.27400333	     -6.61034321	    -55.70205686	     -0.38911377	      0.99589539	      0.00959464	    -12.13397325	     14.86058851	     11.00598858	    -12.33958581	     15.15223722	     -6.53009815	     24.51086203	     -7.74043132	     -0.10320744	    -15.31481744	      6.49981040	     11.77001924	    -17.25234992	      8.55712539	     10.71217386
      2.60000000	     -3.43681128	     -6.69484362	    -56.11997087	     -0.38360236	      0.99467236	      0.01573968	    -12.61113466	     14.85711412	     11.36964341	    -12.51415402	     15.34176527	     -6.29581674	     24.49994957	     -7.66097622	      0.07602643	    -14.72388889	      6.70389802	     11.83185072	    -17.31328140	      8.64987253	     10.73997111
      2.61000000	     -3.58153390	     -6.77453320	    -56.55446353	     -0.37805128	      0.99349675	      0.02209731	    -13.08448128	     14.83095003	     11.73951757	    -12.73415483	     15.47643515	     -6.00259899	     24.46476782	     -7.59111530	      0.22451913	    -14.39950859	      6.85736666	     11.81817551	    -17.35917299	      8.70613134	     10.75995223
      2.62000000	     -3.71638044	     -6.83095436	    -56.99178820	     -0.37242191	      0.99234881	      0.02862573	    -13.53377705	     14.77818324	     12.11060060	    -12.98998730	     15.57294219	     -5.66311211	     24.43003965	     -7.51354123	      0.38775084	    -14.33689224	      6.90770964	     11.71918314	    -17.36804763	      8.73631978	     10.76480251
      2.63000000	     -3.84535639	     -6.85436597	    -57.42249436	     -0.36671018	      0.99122872	      0.03531909	    -13.95353155	     14.69924060	     12.47969107	    -13.26502055	     15.63633935	     -5.29548810	     24.41028056	     -7.41953080	      0.60444969	    -14.52352247	      6.79695275	     11.52370200	    -17.32334219	      8.73952356	     10.75831872
      2.64000000	     -3.96180217	     -6.84080821	    -57.83378526	     -0.36091263	      0.99015455	      0.04217635	    -14.32966072	     14.59319693	     12.82204230	    -13.58184821	     15.67070331	     -4.87587741	     24.39719138	     -7.29730224	      0.89434862	    -14.91100756	      6.48615633	     11.18918106	    -17.22159812	      8.71238377	     10.66887515
      2.65000000	     -4.06573862	     -6.78484426	    -58.21682762	     -0.35500823	      0.98913208	      0.04918006	    -14.67355348	     14.45531326	     13.12880478	    -13.90079469	     15.67216088	     -4.45384261	     24.42224363	     -7.14002822	      1.26151577	    -15.50676067	      5.93295776	     10.72956803	    -17.05602832	      8.65434712	     10.54656171
      2.66000000	     -4.15181992	     -6.68381638	    -58.57939621	     -0.34902524	      0.98819348	      0.05633588	    -14.97009304	     14.28386081	     13.41109167	    -14.25319625	     15.61362665	     -4.02147139	     24.47911756	     -6.94895229	      1.68185623	    -16.25194431	      5.13671668	     10.15857056	    -16.82957564	      8.55769394	     10.36596238
      2.67000000	     -4.21905138	     -6.54883896	    -58.91748111	     -0.34296828	      0.98735724	      0.06364269	    -15.23329098	     14.08583422	     13.66888669	    -14.62791560	     15.50582632	     -3.56524114	     24.58115297	     -6.73535714	      2.11341893	    -17.13909166	      4.14546876	      9.48664017	    -16.55322708	      8.42821842	     10.13984140
      2.68000000	     -4.26159408	     -6.38458875	    -59.23310528	     -0.33684454	      0.98664415	      0.07110500	    -15.45962066	     13.86134141	     13.89506212	    -15.04382682	     15.33336683	     -3.08789654	     24.72934452	     -6.50647360	      2.49941403	    -18.14119150	      3.05198091	      8.76597899	    -16.23381475	      8.26398972	      9.86715147
      2.69000000	     -4.28092571	     -6.20650925	    -59.53479342	     -0.33068023	      0.98607908	      0.07873481	    -15.65763573	     13.62120122	     14.10209436	    -15.51097103	     15.08942101	     -2.57170989	     24.91245663	     -6.28423773	      2.79466014	    -19.23562664	      1.98094772	      8.02354970	    -15.89032340	      8.06948511	      9.56228859
